<svg xmlns="http://www.w3.org/2000/svg" width="274.793" height="317.607"><path fill="#264f48" fill-rule="nonzero" d="M230.793 1.338c-2.2 1.2-4.5 4.3-8.8 12.4l-5.7 10.9-3.7-1c-9.9-2.7-23.7 2.9-35.1 14.3-4 4-8.3 8.6-9.4 10.3-1.2 1.7.5.3 3.6-3.2 6.6-7.1 16-14.2 23.2-17.3 5.2-2.4 16.6-3.1 18.5-1.2 1.1 1.1-11.5 27.2-33.6 69.8-4.6 8.8-10.6 21.7-13.4 28.8-4.7 11.8-16 35.5-18.4 38.5-.7.9-3.8-4.1-11.5-19-14-27.2-18.7-37.8-26.7-60.3-8.2-23-10.2-27.6-14.9-34.5-4-5.8-4.1-7-.8-13.9 2.3-4.8 6.1-6.3 39.8-15.1 14.8-3.9 27.5-7.3 28.2-7.5 1.3-.5.7-8.2-.8-9.8-1-1.2-33.1.9-44.5 2.9-21.7 3.7-44.1 10.6-58.6 18-14.3 7.4-46.9 29.5-55.6 37.7-3 2.8-3.1 3.2-1.8 5.6.7 1.4 2.7 3.9 4.4 5.6 2.9 2.6 3.4 2.8 5.3 1.6 11.3-7 48.2-27.1 49.9-27.1 3.3 0 9.9 4.1 10.3 6.5 2.1 10.8 3.6 15.2 8.8 25.8 13.8 28 16.9 36.1 31.9 83.5 4.4 13.9 9.5 29.3 11.4 34.3l3.5 9-10 20c-5.6 11-9.8 20.5-9.4 21.1.4.6.3.8-.3.5-1.2-.8-5.6 8.1-4.7 9.5.4.7.2.8-.4.4-1.4-.8-4.6 5-3.6 6.6.4.6.3.8-.2.5-.6-.3-6.5 10.4-13.2 23.9-11.4 22.8-14.4 30.1-10.8 26.4.8-.8 13.2-23.8 27.6-51 14.4-27.2 26.5-49.8 26.9-50.3.4-.4 10.4 22.5 22.1 50.8 17.3 41.8 21.8 51.7 23.5 52.1 4.8 1.2 20.9-4.2 26.1-8.8 1.9-1.7 3.4-3.9 3.4-5 0-2.2-46.5-119-50.5-126.7l-2.3-4.6 8.5-16.5c4.7-9.1 12.7-22.8 17.8-30.5 5.8-8.9 15.5-26.4 26.5-48 9.5-18.7 18.4-36 19.8-38.4l2.5-4.4 2.8 3.4c3.9 4.7 9.6 15.6 12.4 23.9 3.6 10.5 4.8 20.4 4.3 34.2-.6 12.9-.7 13.5-11.3 47.6-9.2 29.7-5.7 63.9 8.6 84.9 6.6 9.7 21.7 23.4 29.9 27.2l2.5 1.2-2.5-1.8c-20.6-14.9-32-30.2-37-49.8-2.7-10.6-3.6-28.5-2.1-41.1.9-6.5 3.1-15.6 6.6-26.4 8.5-26.4 9.8-33.5 9.2-49.2-.8-22.1-7.7-41.2-19.6-54.1l-2.5-2.8 6.2-12.4c3.4-6.9 6.2-13.4 6.2-14.5 0-1-1-2.6-2.2-3.4-2.7-1.9-2.6-1.9-6.3-.1Zm-76.7 8.9c-.1.1-13.2 2.7-29.1 5.9-15.8 3.1-30 6.3-31.6 7.1-3.4 1.8-4.8 5-5.6 13.4-.5 4.6-1.2 6.5-2.4 6.9-.9.2-4.3 1.6-7.6 2.9-3.3 1.3-6.5 2.4-7.2 2.4-1.4 0-7.3-4.9-7.3-6 0-.5 3-1.9 6.7-3 10.3-3.2 11.1-4 11.5-10.7.3-5.8.3-5.8 4.9-8.1 5.4-2.7 17.3-5.3 45.9-10.1 17.2-2.9 21.6-3.4 21.8-2.3.2.8.2 1.4 0 1.6Zm78.2 1.3c0 2.6-7.2 17.3-8.4 17.3-.6 0-1.9-.7-3-1.5-1.8-1.3-1.7-1.6 1.4-7.2 3.7-6.7 6.8-10.3 8.7-10.3.7 0 1.3.8 1.3 1.7Zm-11.4 18.9 2.4 1.7-4.1 7.6c-5.1 9.4-8.7 14.3-10 13.6-.5-.4-.6-1.8-.2-3.3.7-3.3 8.4-21.2 9-21.2.2 0 1.5.7 2.9 1.6Zm-168.5 2.4c3 1.7 2.3 2.8-3.8 5.9-5.1 2.6-22 13.5-35.5 23.1-2.6 1.9-5.1 3-5.5 2.7-.4-.4.2-1.4 1.3-2.1 1-.8 10.7-7.9 21.4-15.9s19.6-14.6 19.8-14.6c.2-.1 1.2.4 2.3.9Zm131.7 60.5c-6.2 12.3-11.4 22.2-11.6 22.1-.4-.5 21.6-44.6 22.3-44.6.3 0-4.6 10.1-10.7 22.5Zm-81.8-2c0 .5-.5.3-1-.5s-1-2-1-2.5c0-.6.5-.3 1 .5s1 1.9 1 2.5Zm18.1 38c13.7 29 50.3 112.4 49.5 113.201-.1.199-9.4-20.301-20.6-45.501-11.2-25.1-25.9-57.8-32.7-72.5-11.4-24.8-13.1-28.8-11.9-27.6.3.3 7.3 14.8 15.7 32.4Zm50.5-8.8c-.8 1.5-1.5 2.5-1.6 2.1 0-1.2 2.3-5.8 2.7-5.4.3.2-.2 1.7-1.1 3.3Z"/></svg>